<?xml version="1.0" standalone="no"?>
<!DOCTYPE svg PUBLIC "-//W3C//DTD SVG 20010904//EN"
 "http://www.w3.org/TR/2001/REC-SVG-20010904/DTD/svg10.dtd">
<svg version="1.0" xmlns="http://www.w3.org/2000/svg"
 width="1536.000000pt" height="1024.000000pt" viewBox="0 0 1536.000000 1024.000000"
 preserveAspectRatio="xMidYMid meet">

<g transform="translate(0.000000,1024.000000) scale(0.100000,-0.100000)"
fill="#000000" stroke="none">
<path d="M7400 9083 c-686 -54 -1366 -359 -1830 -823 -210 -209 -362 -430
-450 -653 -74 -189 -133 -479 -165 -808 l-6 -66 -82 -7 c-230 -18 -510 -36
-569 -36 -38 0 -68 -4 -68 -8 0 -24 694 -243 1047 -331 436 -110 1029 -242
1143 -256 l55 -7 0 99 c0 54 2 107 5 118 5 18 -12 24 -195 70 -110 28 -207 54
-215 57 -8 4 37 7 100 9 287 5 304 7 294 34 -4 8 -1 28 4 43 6 15 13 43 16 62
3 19 9 36 14 38 5 1 7 14 4 28 -6 32 18 135 30 128 10 -7 10 7 -1 24 -12 19
-103 121 -215 241 -157 169 -271 356 -345 565 -33 93 -171 559 -170 573 0 4
31 -82 70 -192 77 -223 166 -412 261 -555 69 -104 282 -330 450 -477 l98 -86
-3 -273 -2 -273 38 -15 c23 -9 37 -21 38 -33 1 -10 5 -4 9 12 4 17 5 155 2
308 -3 152 -2 277 1 277 10 0 181 -173 587 -595 206 -214 470 -485 585 -603
l210 -214 -160 -147 c-88 -81 -182 -167 -210 -191 -27 -25 -79 -72 -115 -105
-36 -33 -121 -109 -190 -170 -68 -60 -176 -157 -240 -215 -267 -245 -726 -650
-734 -650 -3 0 -1 12 5 28 5 15 38 155 73 312 36 157 70 308 77 337 10 41 10
58 -1 82 -7 17 -18 31 -25 31 -18 0 -376 -101 -545 -154 -535 -166 -959 -323
-1310 -485 -128 -59 -316 -160 -299 -161 13 0 538 120 612 140 43 12 80 20 81
18 1 -1 29 -106 60 -232 64 -253 142 -512 175 -578 28 -58 159 -232 259 -345
l82 -92 0 -264 0 -264 30 -59 c73 -148 301 -319 766 -577 587 -325 914 -449
1225 -464 129 -6 245 9 396 53 189 54 511 199 748 336 72 41 174 101 229 132
141 82 343 216 430 287 93 74 139 127 177 201 l29 57 0 305 0 305 93 123 c166
221 192 291 287 783 12 61 24 120 27 131 4 20 13 22 92 26 65 3 98 10 132 27
207 106 396 529 479 1068 44 286 48 517 13 738 -20 131 -45 195 -91 237 -39
35 -224 122 -284 133 l-36 7 -36 137 c-34 131 -36 145 -40 341 -5 249 -34 460
-92 680 -68 253 -205 521 -363 710 -309 370 -694 641 -1171 823 -326 125 -579
178 -916 194 l-140 6 -28 -169 c-15 -93 -72 -459 -127 -814 -55 -355 -116
-737 -135 -850 -30 -170 -35 -220 -30 -290 8 -125 19 -156 129 -360 66 -124
90 -205 120 -412 l23 -154 -61 65 c-168 183 -443 471 -651 681 -127 129 -237
246 -245 260 l-13 25 -6 -30 c-5 -29 -6 -29 -140 96 -121 113 -228 229 -303
329 -41 56 -116 197 -153 288 -33 83 -44 127 -22 87 6 -11 17 -24 25 -28 7 -5
29 -38 47 -75 63 -124 150 -250 239 -346 78 -84 164 -161 143 -128 -11 18 -9
107 3 129 5 11 12 32 15 47 3 14 14 39 26 54 51 66 86 102 99 102 8 0 11 3 8
7 -4 3 3 11 14 17 12 6 21 14 20 18 -1 11 41 58 52 58 4 0 28 14 52 30 24 17
48 30 53 30 5 0 15 6 21 14 7 8 35 27 63 41 81 42 93 49 100 60 4 6 8 6 8 1 0
-5 9 -1 20 9 11 10 20 15 20 10 0 -4 11 0 25 9 13 9 35 16 48 16 12 0 27 4 33
8 5 5 43 19 84 32 41 14 81 31 89 38 12 11 15 11 22 0 5 -7 9 -8 9 -3 0 12 96
585 140 833 16 95 29 185 29 200 -1 17 -3 21 -6 10 -5 -19 -28 -24 -38 -9 -7
13 -22 12 -220 -10 -93 -11 -215 -31 -270 -44 -140 -33 -296 -83 -314 -99 -9
-8 -72 -37 -141 -66 -69 -28 -168 -74 -220 -102 -127 -67 -319 -200 -407 -282
l-71 -66 -13 54 c-6 30 -9 61 -6 69 14 37 250 179 476 286 207 99 233 109 433
170 211 63 411 98 741 127 37 3 67 10 67 15 0 9 -102 10 -200 2z m650 -34
c380 -45 661 -127 970 -284 156 -80 444 -261 508 -320 4 -4 -27 -115 -32 -115
-2 0 -23 18 -47 41 -152 142 -541 388 -694 439 -20 7 -34 15 -30 18 9 10 -181
81 -311 117 -199 55 -568 106 -649 91 -32 -6 -35 -5 -35 18 0 24 0 24 78 19
42 -2 151 -13 242 -24z m1701 -796 c200 -205 302 -348 409 -568 98 -203 96
-186 45 -296 -23 -52 -79 -164 -123 -249 -43 -85 -95 -195 -113 -245 -24 -62
-35 -82 -37 -67 -4 23 23 102 37 112 8 5 81 172 81 185 0 4 7 23 17 42 18 40
11 83 -33 196 -54 138 -121 239 -234 355 -118 120 -230 256 -230 278 0 8 -4
14 -10 14 -5 0 -32 -71 -59 -157 -121 -382 -161 -514 -177 -577 -16 -63 -16
-68 1 -80 9 -6 26 -37 37 -67 11 -30 28 -76 38 -104 10 -27 21 -66 24 -86 3
-19 12 -62 21 -95 21 -76 31 -277 17 -327 -10 -36 -9 -39 16 -49 126 -49 200
-96 285 -180 91 -90 114 -105 101 -65 -14 43 -24 92 -24 122 0 29 1 29 36 -20
20 -28 78 -134 130 -237 77 -154 93 -192 88 -218 -4 -16 -8 -30 -11 -30 -10 0
-62 37 -96 69 -21 20 -41 34 -44 31 -4 -3 -34 33 -67 80 -82 117 -200 233
-267 265 -45 21 -69 25 -147 25 -200 0 -701 -90 -910 -164 -95 -34 -193 -131
-232 -233 -12 -30 -19 -40 -20 -26 0 12 -8 28 -18 35 -10 7 -32 34 -50 59 -17
26 -38 49 -46 52 -8 3 -31 38 -52 77 l-38 72 -50 -103 c-27 -56 -51 -98 -53
-92 -5 13 67 213 96 272 37 72 108 139 244 228 154 102 257 158 481 257 209
94 240 112 297 173 60 64 85 120 158 358 35 110 110 342 168 515 58 173 124
372 146 443 23 70 47 127 53 127 6 0 58 -48 115 -107z m-4089 17 c36 -17 71
-79 76 -135 3 -43 -1 -56 -29 -98 -17 -27 -75 -86 -128 -132 -53 -46 -118
-106 -144 -135 -32 -34 -69 -61 -111 -79 -68 -31 -121 -84 -161 -161 l-23 -45
-7 28 c-14 56 112 306 241 478 103 138 240 289 261 289 1 0 12 -5 25 -10z
m2848 -179 c3 -4 25 -13 50 -20 44 -13 155 -68 233 -115 39 -24 76 -60 137
-136 19 -24 49 -61 65 -81 60 -75 136 -193 163 -253 8 -18 16 -26 20 -19 4 6
34 92 67 192 44 130 65 181 78 184 9 3 17 3 17 -1 0 -8 -146 -523 -181 -637
-72 -235 -85 -247 -462 -433 -290 -144 -484 -261 -578 -349 -57 -53 -85 -103
-135 -237 -24 -66 -33 -83 -33 -61 -1 50 36 196 63 255 31 66 32 75 6 103 -11
12 -27 42 -34 68 -14 46 -43 109 -55 119 -3 3 -14 30 -24 60 -10 30 -22 64
-27 75 -4 11 -16 45 -25 75 -9 30 -23 65 -31 77 -7 12 -26 75 -41 140 -39 171
-38 329 6 473 11 36 29 100 40 144 27 99 53 156 101 220 55 75 102 108 197
142 76 26 366 38 383 15z m-3368 -711 c2 -30 -35 -205 -64 -310 -17 -62 -53
-272 -61 -358 -1 -14 -7 -20 -15 -17 -8 3 -18 5 -23 5 -5 0 -7 17 -4 38 2 20
12 96 20 167 26 216 55 365 102 530 l17 59 14 -44 c7 -25 13 -56 14 -70z
m5152 -80 c14 -58 30 -134 36 -170 15 -99 40 -430 40 -531 0 -85 -1 -91 -34
-136 -32 -45 -137 -248 -166 -321 -7 -18 -15 -31 -17 -28 -3 2 11 51 30 108
44 127 54 194 58 373 5 244 0 395 -13 395 -5 0 -7 4 -3 9 3 5 -6 21 -19 34
-14 14 -22 28 -19 31 4 3 1 6 -5 6 -7 0 -12 -6 -12 -12 0 -9 -4 -8 -10 2 -7
11 -9 2 -5 -30 4 -38 2 -34 -16 26 l-20 71 54 109 c30 60 60 126 68 146 7 21
16 35 20 30 4 -4 19 -54 33 -112z m-127 -352 c-3 -7 -5 -2 -5 12 0 14 2 19 5
13 2 -7 2 -19 0 -25z m10 -65 c-3 -10 -5 -4 -5 12 0 17 2 24 5 18 2 -7 2 -21
0 -30z m239 -588 l17 -70 -51 -105 c-85 -176 -158 -430 -180 -625 l-9 -80 -2
85 c-2 135 23 264 84 443 79 227 84 247 73 279 -13 36 -47 47 -66 22 -13 -18
-14 -17 -7 6 4 14 28 66 53 115 l45 90 13 -45 c7 -25 21 -77 30 -115z m-866
-216 l51 -11 -59 -28 c-88 -42 -146 -50 -335 -49 -223 1 -249 8 -142 37 196
53 384 73 485 51z m978 -195 c49 -16 119 -48 135 -62 20 -18 18 -20 42 38 23
56 43 80 60 74 10 -4 7 -16 -11 -47 -29 -53 -87 -252 -107 -372 -20 -114 -75
-402 -93 -480 l-13 -60 5 65 c3 36 11 110 19 165 8 55 17 133 21 173 l7 72
-40 0 c-22 0 -61 3 -86 6 l-45 6 -17 -76 c-10 -43 -19 -76 -21 -74 -5 5 23
264 36 333 21 109 60 274 72 302 l12 28 4 -43 c2 -30 8 -45 20 -48z m-1318 25
c101 -23 119 -30 125 -50 4 -11 16 -29 28 -40 l22 -21 -38 16 c-162 66 -379
57 -540 -22 -64 -32 -74 -35 -53 -15 14 13 26 30 26 38 0 22 26 42 86 65 101
37 252 50 344 29z m1180 -166 c-42 -235 -39 -227 -60 -208 -9 8 -24 15 -33 15
-21 0 -21 7 2 122 23 110 46 181 61 186 5 2 20 12 32 22 13 11 24 19 24 20 1
0 -11 -71 -26 -157z m-1191 -45 c68 -69 79 -175 26 -244 -62 -81 -205 -100
-281 -38 -55 44 -73 73 -80 126 -6 40 -2 56 22 104 37 73 60 83 185 84 96 0
97 0 128 -32z m-645 -110 c-5 -7 -27 -37 -51 -66 -44 -54 -51 -78 -33 -112 19
-36 43 -41 121 -23 69 15 83 15 234 -2 326 -37 561 -12 713 75 l37 22 -34 -31
c-19 -17 -58 -42 -86 -57 l-51 -27 18 -36 c10 -19 18 -41 18 -48 0 -6 4 -14
10 -18 14 -9 125 51 172 93 l41 37 57 -65 c52 -57 60 -63 77 -51 10 7 -2 -6
-27 -29 -51 -47 -193 -146 -257 -178 -23 -12 -44 -25 -47 -30 -16 -26 105
-418 185 -596 27 -60 49 -112 49 -114 0 -9 -38 44 -65 93 -16 28 -30 52 -31
54 -2 2 -24 -15 -51 -37 -99 -83 -198 -110 -423 -118 -187 -7 -225 -14 -266
-49 -29 -25 -37 -29 -64 -26 -8 1 17 -19 55 -44 l71 -45 -8 -87 c-11 -134 -16
-160 -37 -208 -11 -24 -17 -45 -15 -48 11 -11 -167 -19 -477 -22 -300 -3 -344
-6 -414 -24 -106 -28 -192 -27 -295 4 -72 22 -104 25 -239 26 -86 1 -149 3
-141 5 9 3 22 19 29 37 26 65 49 146 42 153 -3 4 23 -12 59 -35 36 -23 94 -56
130 -73 36 -16 85 -40 108 -51 61 -29 192 -35 261 -12 28 9 93 44 143 77 50
33 125 77 165 99 172 90 264 189 279 303 19 134 -94 299 -200 294 -35 -1 -36
-2 -10 -5 49 -6 109 -65 133 -129 12 -30 21 -62 21 -70 0 -29 -55 -76 -101
-85 -63 -12 -173 -11 -225 2 -42 11 -49 10 -107 -21 -123 -65 -235 -77 -322
-36 -79 37 -115 88 -115 161 0 19 11 79 24 134 14 55 30 144 36 198 13 103 18
121 57 167 13 16 22 34 19 41 -5 13 68 86 199 201 83 73 120 100 99 73 -7 -8
-8 -22 -3 -34 4 -11 8 -15 9 -10 1 6 5 1 9 -10 4 -11 9 -76 10 -145 1 -69 7
-127 12 -128 5 -2 28 -31 51 -65 43 -64 175 -197 194 -197 31 0 36 29 31 197
l-4 168 33 103 c19 57 34 109 34 117 0 8 -13 36 -30 62 -34 53 -39 101 -12
131 18 22 195 182 200 182 2 0 0 -6 -4 -12z m1554 -115 c66 -132 116 -311 128
-458 16 -194 -80 -344 -378 -593 -48 -39 -90 -72 -93 -72 -10 0 -112 220 -145
315 -17 50 -49 146 -71 214 -45 141 -45 142 36 183 199 101 370 265 451 431
16 31 29 57 31 57 2 0 20 -35 41 -77z m121 -803 c-5 -30 -25 -152 -44 -270
-43 -275 -139 -779 -143 -754 -3 19 -7 29 -37 97 -16 37 -15 46 9 205 31 197
71 422 92 509 7 34 14 73 14 86 0 14 17 46 38 73 21 27 47 63 57 81 11 18 20
31 21 30 1 -1 -2 -27 -7 -57z m-615 -704 c-3 -21 -9 -35 -11 -32 -3 3 -2 21 1
42 4 20 10 34 12 31 3 -3 2 -21 -2 -41z m-4235 -21 c60 -6 85 -5 90 4 5 7 20
-33 35 -91 53 -197 114 -403 136 -453 23 -54 127 -203 230 -330 36 -44 80 -99
98 -122 l33 -42 -43 -64 -43 -63 -122 130 c-141 150 -289 332 -333 409 -37 64
-76 184 -141 431 -53 203 -57 225 -36 208 6 -6 50 -14 96 -17z m1169 -57 c-29
-88 -27 -175 5 -268 89 -266 243 -664 360 -935 121 -280 338 -729 421 -870 25
-42 46 -78 46 -81 0 -5 -138 45 -174 63 -31 16 -121 193 -309 608 -139 308
-188 431 -349 875 -32 90 -73 196 -91 235 -28 62 -32 79 -31 156 2 140 7 156
77 221 34 32 63 58 63 58 1 0 -7 -28 -18 -62z m3049 0 c-3 -7 -5 -2 -5 12 0
14 2 19 5 13 2 -7 2 -19 0 -25z m-10 -50 c-3 -8 -6 -5 -6 6 -1 11 2 17 5 13 3
-3 4 -12 1 -19z m64 -278 c-42 -199 -72 -293 -136 -420 -29 -58 -56 -114 -59
-124 -6 -18 -8 -18 -22 -4 -14 14 -11 26 34 119 27 57 61 134 76 170 26 68 84
284 107 399 11 59 13 62 22 37 6 -20 0 -67 -22 -177z m-510 122 c18 -16 38
-50 49 -82 10 -30 25 -55 32 -55 7 0 20 19 28 43 14 42 30 56 30 26 0 -8 4
-13 10 -9 6 3 6 -5 0 -22 -4 -15 -18 -59 -30 -98 -13 -38 -36 -102 -52 -141
-30 -75 -34 -78 -116 -89 -13 -2 -34 -15 -46 -28 -13 -14 -42 -37 -65 -51 -59
-38 -86 -63 -134 -126 -51 -66 -50 -66 -110 -114 -60 -49 -103 -136 -123 -253
-9 -49 -18 -101 -21 -116 -7 -39 -70 -167 -82 -167 -5 0 0 -23 10 -51 11 -29
19 -61 17 -72 -2 -14 -28 22 -81 114 -88 153 -156 248 -189 265 -48 25 -151
36 -385 41 -265 6 -338 -1 -409 -42 -48 -28 -117 -124 -198 -275 -40 -75 -54
-95 -50 -70 17 90 106 268 170 339 43 48 45 49 126 59 46 6 106 11 133 11 163
-1 595 20 629 30 91 29 186 83 227 129 57 65 193 273 191 295 0 11 4 15 11 10
9 -5 9 -3 0 8 -16 21 -21 75 -5 71 6 -1 11 1 10 5 -2 5 38 49 88 98 50 50 115
126 144 170 127 192 135 197 191 147z m-421 -9 c0 -68 -15 -125 -37 -147 -34
-34 -181 -109 -218 -111 -17 -1 -45 -9 -62 -19 -39 -19 -157 -48 -187 -45 -11
2 -30 -2 -41 -8 -30 -16 -206 -36 -261 -29 -27 3 -58 5 -69 5 -94 -7 -256 1
-295 15 -25 9 -61 16 -81 16 -38 0 -152 35 -184 57 -11 7 -30 13 -43 13 -34 0
-98 36 -120 67 -47 68 -33 125 35 138 33 6 40 4 60 -21 l22 -28 20 25 c11 13
20 27 21 32 0 9 84 8 139 -2 41 -8 63 -25 74 -55 3 -7 14 -2 29 11 13 13 37
25 53 28 47 9 233 -20 256 -41 11 -10 19 -12 19 -5 0 18 40 29 169 47 81 11
125 13 137 6 12 -7 33 -5 68 6 66 20 177 22 199 3 10 -7 17 -9 17 -3 0 13 84
42 122 42 17 0 31 -7 35 -16 5 -15 7 -15 15 1 20 34 108 49 108 18z m-2737
-343 c19 -52 56 -137 81 -189 33 -66 44 -97 37 -104 -6 -6 -12 -9 -14 -6 -20
21 -113 212 -133 270 -39 115 -84 300 -83 344 0 32 8 14 39 -90 21 -71 54
-173 73 -225z m4054 268 c-3 -8 -6 -5 -6 6 -1 11 2 17 5 13 3 -3 4 -12 1 -19z
m-1254 -86 c-26 -22 -34 -40 -46 -98 -17 -83 -25 -99 -69 -141 -145 -137 -399
-239 -661 -263 -157 -15 -390 5 -519 44 -78 23 -137 82 -138 138 0 36 21 55
72 63 54 9 64 15 47 27 -10 6 -3 8 21 4 314 -49 713 -16 980 80 89 31 227 100
290 143 56 38 65 39 23 3z m-2548 -642 c87 -123 221 -306 420 -570 86 -115
178 -246 210 -299 10 -17 4 -14 -85 48 -269 186 -565 433 -773 649 l-49 50 27
43 c15 23 56 76 91 117 35 41 64 80 64 85 0 14 -3 17 95 -123z m3161 93 c8
-10 38 -52 67 -93 93 -131 103 -98 -89 -292 -93 -93 -216 -210 -274 -259 -64
-56 -78 -66 -36 -26 38 36 71 72 72 80 1 8 6 22 11 31 14 25 132 157 203 226
86 83 102 109 97 153 -3 30 -49 117 -61 117 -2 0 -37 -46 -78 -102 -151 -212
-440 -569 -556 -688 l-64 -65 41 60 c22 33 82 112 133 175 138 171 358 468
440 591 39 60 74 109 76 109 3 0 11 -8 18 -17z m200 -113 c11 0 26 6 34 13 7
6 0 -4 -15 -24 l-28 -37 -22 32 c-36 54 -39 62 -13 39 13 -13 33 -23 44 -23z
m-1406 -226 c36 -11 65 -27 86 -49 33 -36 97 -142 157 -262 l37 -72 -48 -17
c-26 -9 -74 -29 -107 -44 -73 -32 -128 -46 -255 -60 -115 -14 -319 -14 -351
-1 -13 5 -62 15 -109 21 -47 7 -131 27 -187 46 -56 19 -109 34 -117 34 -26 0
-19 20 45 151 109 222 151 257 319 270 147 11 465 1 530 -17z m421 -707 l-23
-22 17 28 c10 15 20 25 23 22 3 -3 -5 -16 -17 -28z"/>
<path d="M9028 5634 c-7 -15 -23 -27 -40 -31 -34 -7 -35 -21 -7 -57 29 -37 64
-49 104 -36 37 12 59 34 70 68 5 18 0 29 -25 52 -42 39 -86 41 -102 4z"/>
<path d="M8601 5324 c-26 -11 -32 -17 -23 -26 9 -9 15 -9 24 0 7 7 8 12 3 13
-6 0 6 7 25 14 19 7 28 14 20 14 -8 0 -30 -6 -49 -15z"/>
<path d="M9910 5236 c-41 -40 -71 -69 -65 -64 23 20 28 4 22 -84 -7 -108 -26
-177 -72 -268 -34 -66 -103 -150 -124 -150 -15 0 -15 2 18 -93 34 -96 78 -197
87 -197 9 0 94 60 94 67 0 3 -8 -1 -17 -8 -10 -7 28 31 84 85 57 53 113 111
125 128 61 87 29 451 -55 614 l-22 42 -75 -72z"/>
<path d="M6101 2882 l-41 -50 44 -58 c42 -57 91 -114 266 -306 128 -141 330
-328 353 -328 22 0 -5 43 -96 152 -123 147 -296 373 -397 518 -40 58 -76 109
-80 113 -4 5 -26 -14 -49 -41z"/>
<path d="M7569 2571 c-14 -5 -35 -13 -46 -19 -28 -15 -65 -76 -58 -94 3 -8 -3
-48 -15 -89 -11 -40 -20 -90 -20 -110 0 -37 0 -37 50 -44 27 -4 53 -4 59 -1 5
3 12 39 16 78 8 81 17 132 39 226 8 34 11 62 8 61 -4 0 -19 -4 -33 -8z"/>
<path d="M4303 6462 c4 -2 3 -10 -3 -17 -20 -24 -14 -98 12 -180 14 -44 40
-122 56 -174 31 -96 33 -138 5 -104 -13 16 -13 16 -3 -5 9 -19 14 -21 26 -11
11 9 14 7 14 -10 0 -11 5 -21 10 -21 6 0 10 -7 10 -16 0 -14 -2 -15 -17 -3
-17 13 -17 12 -2 -11 9 -14 60 -101 114 -195 53 -93 105 -179 114 -191 18 -26
101 -59 187 -76 33 -6 66 -16 74 -23 8 -7 25 -16 37 -19 11 -4 24 -13 27 -21
4 -10 -7 -15 -42 -20 -26 -3 -78 -12 -115 -20 -38 -8 -72 -13 -77 -10 -10 6
-16 -9 -110 -305 -45 -140 -108 -337 -141 -438 -32 -100 -59 -186 -59 -189 0
-4 6 2 14 12 13 18 14 18 24 -1 14 -27 35 -143 28 -160 -3 -8 43 10 102 40
339 170 655 286 1750 641 l273 89 -42 12 c-44 13 -92 59 -123 118 -11 20 -23
36 -27 36 -5 0 -14 18 -20 40 -7 22 -18 45 -26 51 -7 6 -13 22 -13 34 0 32
-10 55 -24 55 -6 0 -12 17 -12 40 -1 22 -13 67 -28 99 -14 33 -29 79 -32 103
-4 23 -10 53 -15 66 -5 13 -9 37 -9 54 0 17 -5 48 -11 69 -10 33 -18 40 -60
55 -38 14 -46 21 -37 31 6 7 19 13 29 13 11 0 19 4 19 9 0 5 10 7 23 4 12 -3
20 -3 17 0 -7 7 -430 127 -945 267 -437 119 -511 141 -785 227 -172 55 -203
64 -187 55z"/>
<path d="M6498 6083 c7 -3 16 -2 19 1 4 3 -2 6 -13 5 -11 0 -14 -3 -6 -6z"/>
</g>
</svg>
