<?xml version="1.0" standalone="no"?>
<!DOCTYPE svg PUBLIC "-//W3C//DTD SVG 20010904//EN"
 "http://www.w3.org/TR/2001/REC-SVG-20010904/DTD/svg10.dtd">
<svg version="1.0" xmlns="http://www.w3.org/2000/svg"
 width="1536.000000pt" height="1024.000000pt" viewBox="0 0 1536.000000 1024.000000"
 preserveAspectRatio="xMidYMid meet">

<g transform="translate(0.000000,1024.000000) scale(0.100000,-0.100000)"
fill="#000000" stroke="none">
<path d="M3763 7253 c15 -2 39 -2 55 0 15 2 2 4 -28 4 -30 0 -43 -2 -27 -4z"/>
<path d="M3998 7253 c18 -2 45 -2 60 0 15 2 0 4 -33 4 -33 0 -45 -2 -27 -4z"/>
<path d="M3545 7230 c-238 -47 -440 -143 -660 -311 -94 -71 -240 -250 -296
-361 -65 -128 -115 -328 -120 -480 -2 -34 -7 -59 -14 -62 -7 -2 -92 -8 -190
-12 -101 -4 -171 -10 -163 -15 23 -15 278 -97 416 -133 240 -65 664 -156 722
-156 12 0 17 11 19 47 1 26 4 50 6 53 3 4 -51 22 -118 41 l-122 34 96 3 96 3
17 77 c10 42 21 85 27 94 15 29 12 36 -64 117 -81 86 -159 209 -202 316 -37
94 -96 268 -91 272 2 2 18 -38 36 -89 80 -223 161 -341 339 -492 l88 -75 7
-142 c6 -125 9 -145 27 -162 l20 -19 -1 154 c-1 84 -1 158 0 163 0 6 167 -159
371 -365 l371 -375 -119 -114 c-165 -158 -605 -574 -681 -643 -56 -52 -94 -75
-77 -48 3 5 24 98 45 205 30 147 37 201 30 216 -6 10 -14 19 -19 19 -18 0
-275 -74 -439 -126 -279 -90 -688 -261 -669 -280 2 -3 78 11 168 30 90 19 165
33 167 31 2 -2 19 -66 38 -142 74 -296 99 -350 230 -498 l62 -70 7 -138 c8
-148 12 -158 80 -220 98 -89 513 -313 676 -365 255 -82 427 -74 685 28 121 49
428 211 542 287 125 83 129 93 134 293 l4 165 52 65 c29 35 61 83 72 106 21
43 60 201 83 339 l13 80 50 5 c97 11 137 50 209 203 73 156 115 373 115 595 0
160 -18 247 -59 287 -16 14 -58 37 -96 49 -37 13 -71 28 -75 33 -22 23 -42
136 -45 252 -3 112 -33 313 -50 329 -8 8 -6 -5 10 -98 8 -47 18 -142 22 -213
5 -106 4 -130 -9 -145 -9 -9 -34 -51 -58 -92 -23 -41 -39 -66 -35 -55 4 11 9
38 12 60 7 61 -14 344 -30 397 -15 46 -14 48 22 120 20 40 39 74 43 76 4 2 4
10 1 18 -3 8 -18 -12 -39 -54 -41 -82 -104 -190 -104 -179 0 4 9 25 20 47 11
22 20 47 20 57 0 40 -99 218 -152 274 -29 30 -70 74 -90 97 l-37 41 -44 -137
c-68 -207 -74 -238 -55 -259 55 -62 113 -297 90 -362 -10 -27 -8 -30 31 -47
23 -11 62 -37 87 -58 43 -37 45 -38 48 -17 2 12 9 20 15 18 18 -6 128 -223
122 -239 -13 -33 -56 -7 -110 66 -53 72 -90 109 -135 139 -48 33 -235 17 -472
-39 -123 -29 -161 -51 -203 -116 -16 -26 -33 -47 -37 -47 -5 -1 -35 26 -68 59
-33 33 -60 55 -60 48 0 -6 -3 -8 -6 -5 -9 8 23 94 48 129 31 44 202 151 342
214 132 59 186 96 210 143 8 14 64 181 126 371 l112 345 -45 40 c-43 37 -107
81 -107 72 0 -3 25 -21 98 -73 2 -1 -4 -17 -12 -35 -8 -19 -15 -29 -15 -22 -1
7 -30 32 -65 58 -35 25 -69 51 -76 59 -21 26 -293 153 -394 185 -93 29 -160
41 -333 59 -72 8 -72 8 -77 -17 -3 -14 -28 -172 -56 -351 -28 -179 -62 -390
-75 -470 -14 -80 -25 -177 -25 -216 0 -65 4 -80 49 -170 54 -109 71 -161 71
-215 0 -34 -2 -36 -26 -31 -15 3 -33 17 -42 31 -8 14 -51 58 -95 96 -43 39
-135 125 -203 191 -68 67 -124 118 -126 113 -5 -13 -172 145 -213 201 -33 45
-84 140 -106 198 -16 43 0 21 36 -47 41 -77 138 -201 159 -201 7 0 19 14 26
30 25 60 134 152 308 258 55 33 134 55 143 40 9 -14 10 -10 44 172 39 215 67
392 61 398 -3 3 -63 -3 -133 -13 -187 -26 -427 -109 -550 -191 -66 -44 -163
-121 -180 -143 -14 -20 -21 -13 -28 25 -5 27 -1 32 70 77 191 122 402 204 605
237 85 13 102 18 65 18 -27 0 -90 -8 -140 -18z m-696 -424 c38 -60 30 -79 -71
-182 -90 -92 -119 -109 -145 -83 -17 17 29 111 95 197 46 60 86 102 98 102 1
0 12 -15 23 -34z m1511 -98 c101 -31 195 -104 307 -242 l32 -40 12 30 c6 16
29 76 50 134 21 58 38 101 38 97 2 -17 -131 -472 -145 -498 -21 -41 -64 -70
-204 -136 -137 -65 -292 -158 -328 -196 -12 -13 -36 -55 -52 -93 -26 -59 -29
-63 -24 -29 4 22 13 57 20 79 18 51 18 63 -5 88 -11 11 -28 43 -39 72 -11 28
-37 94 -57 146 -49 126 -57 221 -26 333 38 141 81 206 155 238 87 37 181 43
266 17z m-1788 -253 c-2 -14 -8 -25 -13 -25 -12 0 -11 7 1 31 14 26 18 24 12
-6z m-36 -205 c-9 -58 -21 -138 -28 -177 -6 -43 -16 -73 -23 -73 -7 0 -10 11
-9 28 2 15 8 72 14 127 13 119 53 277 58 230 2 -16 -3 -77 -12 -135z m2812
-425 c14 -54 15 -88 3 -100 -23 -24 -84 -233 -104 -355 -2 -14 -5 -5 -6 20 0
25 15 104 35 175 19 72 37 142 40 156 7 33 -13 47 -31 23 -8 -11 -15 -14 -15
-7 0 17 51 133 59 133 4 0 12 -20 19 -45z m-439 -152 c21 -5 20 -7 -15 -20
-48 -18 -314 -30 -274 -12 66 29 233 47 289 32z m619 -138 c-11 -33 -33 -118
-48 -190 -24 -112 -28 -123 -29 -80 -1 55 0 54 -74 57 l-28 1 6 68 c6 62 42
212 44 182 1 -7 10 -13 21 -13 12 0 34 -7 50 -15 28 -14 29 -14 50 21 11 20
23 35 25 33 2 -2 -6 -31 -17 -64z m-782 44 c53 -14 64 -43 12 -31 -52 11 -179
7 -223 -8 -22 -8 -44 -13 -48 -12 -5 1 -6 -2 -2 -7 3 -6 -3 -15 -14 -21 -11
-5 -22 -6 -25 -1 -9 13 24 37 89 65 66 28 138 33 211 15z m599 -91 c-10 -69
-22 -101 -36 -92 -21 13 12 144 37 144 3 0 3 -24 -1 -52z m-635 -18 c10 -5 25
-28 34 -51 15 -37 15 -44 1 -65 -26 -40 -135 -45 -176 -8 -26 23 -27 109 -2
122 22 13 121 14 143 2z m-311 -29 c-8 -10 -27 -35 -43 -56 -51 -63 -41 -67
189 -71 142 -3 219 0 264 10 l64 13 -24 -19 c-13 -11 -19 -17 -13 -14 15 8 38
-20 29 -34 -8 -13 33 7 79 39 l30 20 27 -24 c16 -13 34 -25 41 -28 16 -6 -18
-37 -114 -104 -40 -27 -68 -54 -68 -64 0 -14 56 -182 105 -314 6 -17 4 -16
-13 4 l-19 24 -44 -26 c-28 -16 -72 -30 -119 -37 -142 -20 -193 -31 -216 -48
-31 -23 -30 -26 12 -51 35 -21 36 -23 29 -67 -3 -24 -13 -60 -20 -78 -8 -18
-12 -36 -9 -38 9 -9 -97 -20 -301 -30 -260 -13 -309 -13 -435 0 -58 6 -113 11
-122 12 -16 0 -16 3 -3 41 8 23 15 50 15 60 0 26 7 24 68 -17 61 -41 150 -74
198 -74 18 0 57 9 85 20 72 29 235 136 260 172 46 64 29 165 -37 217 -42 33
-48 24 -10 -14 40 -40 56 -96 35 -121 -12 -14 -29 -16 -108 -11 -83 5 -97 3
-121 -14 -15 -12 -50 -23 -81 -26 -66 -7 -111 12 -134 57 -14 27 -13 39 6 142
11 62 29 131 40 154 10 22 51 71 90 109 l71 69 14 -25 c7 -13 13 -53 14 -89
l0 -64 58 -53 c31 -29 62 -53 67 -53 6 0 9 35 7 92 -3 71 1 108 16 155 12 37
16 66 11 75 -17 26 -9 57 22 85 17 15 50 47 72 71 43 44 59 55 36 23z m824
-136 c31 -88 51 -204 42 -247 -12 -59 -53 -114 -147 -202 -51 -47 -94 -86 -97
-86 -12 1 -148 338 -139 345 2 1 41 27 88 57 96 62 146 112 179 182 29 58 38
52 74 -49z m25 -492 c-20 -155 -52 -350 -72 -433 -12 -53 -13 -51 -10 70 1 69
7 154 13 190 5 36 15 103 22 150 8 58 19 96 37 122 13 21 25 38 26 38 1 0 -6
-62 -16 -137z m-305 -266 c-15 -75 -29 -135 -31 -132 -6 5 27 210 40 246 21
61 18 18 -9 -114z m-2211 -41 c4 3 30 -67 57 -154 l51 -159 91 -113 91 -113
-16 -33 c-8 -19 -19 -34 -24 -34 -20 0 -228 234 -256 289 -8 14 -28 78 -46
141 -17 63 -36 128 -41 144 -13 43 -13 43 39 36 26 -5 50 -6 54 -4z m580 -70
c-3 -57 2 -78 54 -212 99 -258 183 -453 282 -656 90 -184 95 -197 72 -191 -64
14 -74 26 -139 158 -75 151 -126 270 -222 520 -38 99 -78 199 -89 223 -13 27
-20 64 -20 103 0 54 3 64 29 90 16 16 31 29 33 29 2 0 2 -29 0 -64z m1407 -78
c18 -28 27 -35 37 -27 22 18 -11 -101 -54 -193 -21 -45 -49 -91 -63 -100 -13
-10 -59 -40 -102 -69 -42 -28 -83 -63 -91 -77 -23 -48 -69 -206 -67 -232 2
-17 -17 4 -61 70 -85 128 -89 130 -305 133 -219 3 -223 0 -311 -158 -24 -43
-32 -52 -27 -30 9 43 86 175 109 187 11 6 109 14 220 19 274 13 307 23 381
117 46 58 57 92 30 92 -13 0 -19 11 -17 31 1 4 -30 -8 -67 -27 -91 -45 -176
-64 -287 -64 -198 0 -319 50 -300 125 7 28 38 36 96 25 61 -12 188 -12 290 0
168 21 296 69 410 153 30 22 47 31 37 19 -11 -11 -16 -26 -12 -31 3 -6 1 -11
-5 -11 -6 0 -8 -5 -4 -11 3 -6 -13 -31 -37 -55 -24 -24 -38 -44 -33 -44 12 0
80 79 109 125 53 85 85 93 124 33z m167 -79 c-15 -56 -31 -109 -37 -118 -9
-13 -9 -13 -4 4 3 11 18 69 32 130 14 60 28 104 30 97 3 -6 -7 -58 -21 -113z
m-422 87 c8 -32 -20 -64 -77 -90 -132 -60 -251 -80 -433 -74 -124 5 -148 9
-223 36 -97 36 -111 46 -111 77 0 53 19 68 52 39 16 -16 18 -16 24 0 11 29
124 18 124 -12 0 -13 2 -13 13 3 12 16 23 17 83 11 38 -4 73 -11 78 -16 6 -6
14 -6 21 0 13 11 143 32 155 25 4 -3 31 0 59 7 39 9 57 9 76 0 21 -10 29 -9
40 2 9 8 34 13 64 13 41 -1 51 -4 55 -21z m486 -97 c-11 -52 -36 -127 -55
-167 -19 -41 -32 -79 -29 -85 5 -8 2 -8 -6 0 -11 10 -7 26 23 90 20 43 46 120
58 171 11 51 23 91 25 89 3 -2 -4 -47 -16 -98z m-1961 -22 c17 -54 54 -143 89
-209 2 -5 0 -8 -5 -8 -18 0 -73 120 -97 214 -15 54 -26 103 -25 110 1 12 4 3
38 -107z m161 -309 c25 -34 94 -127 153 -207 59 -79 106 -146 103 -148 -2 -2
-30 30 -62 73 -33 42 -81 104 -108 138 -26 33 -66 87 -88 119 -21 31 -42 57
-46 57 -4 0 -15 -12 -25 -25 -23 -32 -23 -31 120 -184 110 -117 199 -195 212
-186 5 2 22 -13 40 -35 18 -22 29 -40 26 -40 -11 0 -175 115 -246 172 -37 29
-103 87 -148 127 l-81 75 17 25 c12 20 83 101 88 101 0 0 21 -28 45 -62z
m1721 4 l37 -52 -102 -103 c-55 -56 -121 -118 -146 -137 -50 -38 -43 -27 28
47 147 153 175 197 156 247 -10 26 -21 19 -58 -36 -19 -29 -100 -129 -180
-223 -129 -152 -166 -202 -121 -165 8 7 15 10 15 7 0 -2 -21 -22 -47 -43 l-47
-38 20 33 c10 18 62 85 114 149 141 173 224 282 251 329 13 24 29 41 34 40 6
-2 26 -27 46 -55z m109 35 c0 -2 -10 -12 -22 -23 l-23 -19 19 23 c18 21 26 27
26 19z m-746 -181 c18 -18 49 -65 70 -105 l37 -71 -25 -10 c-90 -34 -156 -44
-291 -44 -104 0 -157 5 -205 18 -36 10 -77 21 -92 23 -16 3 -28 7 -28 9 0 3
12 28 26 57 39 77 83 137 107 147 12 5 100 9 196 9 l174 1 31 -34z"/>
<path d="M4630 5453 c0 -8 -9 -17 -20 -20 -25 -7 -25 -15 -1 -37 42 -38 114 2
77 42 -23 26 -56 35 -56 15z"/>
<path d="M5089 5223 c-18 -20 -28 -33 -21 -29 37 21 -21 -177 -67 -229 -17
-20 -31 -39 -30 -43 1 -22 46 -126 54 -129 6 -2 46 33 90 77 l79 79 4 61 c6
82 -39 250 -66 250 -5 0 -24 -16 -43 -37z"/>
<path d="M3838 3784 c-31 -16 -68 -80 -68 -117 0 -35 23 -61 47 -53 16 5 22
18 27 62 3 31 13 71 21 90 16 38 12 40 -27 18z"/>
<path d="M4123 7243 c9 -2 23 -2 30 0 6 3 -1 5 -18 5 -16 0 -22 -2 -12 -5z"/>
<path d="M4178 7233 c6 -2 18 -2 25 0 6 3 1 5 -13 5 -14 0 -19 -2 -12 -5z"/>
<path d="M4680 7056 c0 -3 9 -10 20 -16 11 -6 20 -8 20 -6 0 3 -9 10 -20 16
-11 6 -20 8 -20 6z"/>
<path d="M5000 6826 c0 -4 23 -33 51 -64 61 -67 122 -155 167 -242 18 -36 30
-54 26 -40 -10 40 -61 130 -107 191 -57 76 -136 166 -137 155z"/>
<path d="M5281 6354 c0 -11 3 -14 6 -6 3 7 2 16 -1 19 -3 4 -6 -2 -5 -13z"/>
<path d="M2162 5804 c13 -112 113 -358 168 -412 16 -16 49 -34 77 -42 26 -6
56 -14 66 -17 25 -6 21 -23 -6 -23 -13 0 -46 -7 -73 -15 -48 -14 -51 -17 -67
-69 -10 -29 -14 -62 -10 -71 4 -11 2 -16 -4 -12 -5 3 -9 -7 -9 -26 0 -18 -10
-78 -22 -134 -12 -57 -24 -129 -25 -161 -2 -32 -7 -63 -10 -70 -4 -6 27 5 70
25 123 57 339 136 588 217 381 122 451 146 422 140 -16 -2 -26 -1 -23 4 3 5
-4 18 -15 28 -12 10 -28 32 -37 49 -23 44 -82 234 -82 264 0 47 -12 69 -41 81
-35 15 -38 30 -6 31 32 1 -22 17 -403 119 -184 50 -385 106 -446 125 -62 19
-114 35 -116 35 -2 0 -1 -30 4 -66z"/>
<path d="M6230 5753 l-96 -4 -23 -182 c-12 -100 -44 -351 -70 -557 l-48 -375
91 -8 c50 -5 188 -6 306 -4 321 7 430 35 520 134 59 64 80 125 80 227 0 114
-60 202 -153 222 -52 11 -51 15 12 44 81 39 136 95 155 161 24 81 21 146 -11
210 -25 47 -36 58 -93 86 -98 49 -252 60 -670 46z m525 -23 c74 -11 152 -43
199 -83 25 -20 30 -32 34 -85 l4 -60 -103 5 -102 6 -41 42 c-32 33 -53 45 -94
54 -59 12 -155 14 -225 5 -42 -6 -47 -10 -52 -38 -6 -30 -8 -31 -48 -29 -23 2
-72 8 -109 14 l-68 11 0 48 c0 26 3 61 6 78 6 29 10 31 53 35 105 8 481 6 546
-3z m-82 -154 c55 -23 72 -51 72 -116 0 -67 -20 -102 -76 -135 -28 -16 -57
-20 -166 -23 -73 -3 -133 0 -133 4 0 5 7 65 15 134 8 69 15 131 15 138 0 18
229 17 273 -2z m-25 -470 c65 -34 77 -127 30 -219 -31 -62 -85 -81 -241 -85
l-128 -4 5 23 c3 13 10 69 16 124 17 157 20 173 38 179 9 2 69 4 132 2 88 -1
123 -6 148 -20z"/>
<path d="M8586 5708 c-3 -24 -13 -99 -22 -168 l-16 -125 -132 0 c-205 0 -319
-43 -387 -145 -54 -81 -84 -225 -77 -380 3 -82 7 -102 31 -142 68 -116 183
-142 536 -118 102 6 189 15 193 18 4 4 21 126 38 272 17 146 44 371 59 500 16
129 31 256 34 283 l5 47 -128 0 -128 0 -6 -42z m244 19 c0 -7 -11 -81 -25
-165 -14 -84 -25 -154 -25 -155 0 -7 -90 -8 -143 -2 l-59 7 6 92 c3 50 8 124
12 164 l6 72 114 0 c86 0 114 -3 114 -13z m-332 -483 c27 -8 27 -6 -12 -289
l-21 -160 -93 -3 c-91 -3 -93 -2 -122 27 -28 28 -30 34 -30 113 0 95 21 204
47 249 10 18 36 40 58 50 40 19 127 25 173 13z"/>
<path d="M9521 5658 c-6 -51 -16 -127 -22 -169 l-11 -76 -126 1 c-255 2 -367
-62 -432 -246 -17 -49 -23 -93 -27 -203 -5 -130 -4 -145 17 -193 28 -64 72
-104 142 -128 43 -15 83 -19 208 -19 85 0 208 4 273 8 109 8 117 11 121 30 3
12 12 87 21 167 9 80 25 215 36 300 24 197 69 591 69 607 0 10 -31 13 -129 13
l-128 0 -12 -92z m259 70 c0 -14 -14 -96 -42 -238 l-20 -105 -96 3 c-53 2 -98
5 -100 7 -5 4 16 289 24 323 4 21 8 22 119 22 82 0 115 -3 115 -12z m-317
-488 c5 -4 -41 -407 -49 -437 -2 -9 -30 -13 -93 -13 -81 0 -92 2 -120 25 -38
33 -46 81 -32 195 19 149 49 209 117 230 29 9 168 9 177 0z"/>
<path d="M11317 5729 c-23 -21 -27 -34 -33 -110 l-6 -86 109 -6 c155 -9 148
-13 163 99 9 65 9 99 2 106 -5 5 -54 12 -109 15 -94 5 -100 4 -126 -18z m227
-29 c-4 -66 -18 -133 -31 -146 -11 -10 -41 -14 -114 -14 l-100 0 7 73 c12 123
6 118 131 115 l108 -3 -1 -25z"/>
<path d="M10866 5708 c-3 -13 -16 -113 -31 -223 -14 -110 -36 -274 -49 -365
-34 -232 -66 -463 -66 -477 0 -10 34 -13 134 -13 74 0 137 4 140 8 3 5 23 154
45 333 23 178 52 411 66 518 14 106 25 204 25 217 l0 24 -130 0 c-126 0 -130
-1 -134 -22z m254 -13 c0 -14 -6 -54 -14 -88 -8 -34 -22 -102 -31 -152 -9 -49
-19 -92 -21 -95 -3 -3 -42 -8 -87 -11 -45 -3 -90 -9 -99 -13 -16 -7 -18 -2
-18 51 0 33 4 95 10 139 5 43 12 105 15 137 l6 57 120 0 119 0 0 -25z"/>
<path d="M11745 5708 c-2 -13 -11 -75 -20 -138 -8 -63 -20 -146 -25 -185 -20
-141 -90 -708 -90 -731 0 -24 0 -24 129 -24 73 0 132 4 136 10 3 5 13 84 22
175 10 91 20 165 23 165 3 0 12 -12 21 -28 75 -128 167 -272 187 -294 26 -28
26 -28 165 -28 76 0 137 4 135 8 -7 17 -150 242 -211 332 l-64 95 146 149 c80
82 130 138 111 123 -19 -15 -49 -35 -66 -43 -29 -15 -33 -15 -83 11 -38 19
-51 31 -47 41 3 9 6 18 6 20 0 2 28 4 63 5 34 1 89 5 122 9 51 6 41 7 -66 9
l-126 1 -134 -129 c-73 -72 -135 -128 -137 -127 -1 2 9 108 23 236 15 127 25
233 23 236 -2 2 -15 -55 -28 -127 -13 -72 -28 -133 -33 -136 -5 -3 -52 -7
-104 -9 l-96 -3 7 137 c10 175 19 242 37 253 11 7 11 9 -3 9 -10 0 -20 -10
-23 -22z"/>
<path d="M11820 5724 c83 -8 190 -8 190 -1 0 4 -51 6 -112 5 -62 -1 -97 -3
-78 -4z"/>
<path d="M3278 5693 c7 -3 16 -2 19 1 4 3 -2 6 -13 5 -11 0 -14 -3 -6 -6z"/>
<path d="M12805 5400 c-83 -11 -172 -44 -215 -78 -80 -65 -122 -199 -124 -397
-1 -107 2 -125 22 -167 29 -58 56 -81 129 -108 87 -32 197 -44 316 -32 228 23
315 96 362 302 59 265 9 418 -152 463 -71 20 -253 29 -338 17z m283 -29 c23
-7 42 -16 42 -22 0 -6 -4 -8 -9 -4 -5 3 -12 1 -15 -3 -3 -5 -26 -10 -53 -11
-26 -1 -58 -8 -70 -17 -29 -18 -123 -31 -123 -16 0 8 -75 17 -182 22 -29 2
-21 16 20 34 73 33 295 43 390 17z m-71 -155 c27 -23 28 -28 27 -108 0 -98
-20 -209 -45 -259 -30 -61 -135 -88 -213 -55 -43 18 -50 40 -48 146 6 233 47
300 184 300 56 0 71 -4 95 -24z"/>
<path d="M7146 5366 c-17 -90 -47 -312 -57 -420 -10 -107 -9 -130 5 -178 8
-30 28 -68 43 -83 69 -70 195 -91 332 -56 62 15 88 18 97 10 9 -7 55 -10 131
-7 l118 4 8 74 c5 41 22 176 38 300 16 124 32 259 35 301 l7 76 -124 5 c-68 3
-126 4 -128 2 -2 -2 -18 -120 -36 -264 -22 -174 -39 -269 -49 -286 -27 -40
-64 -58 -121 -58 -59 -1 -90 18 -98 61 -2 14 6 116 19 227 14 110 27 228 30
261 l6 60 -125 1 -125 1 -6 -31z"/>
<path d="M9851 5333 c11 -32 49 -159 85 -283 81 -282 120 -391 144 -410 20
-15 20 -16 -1 -57 -32 -64 -87 -88 -190 -79 -43 4 -79 5 -79 4 0 -2 -7 -41
-14 -88 -8 -47 -11 -89 -6 -94 4 -4 68 -6 142 -5 127 4 137 6 200 37 113 55
141 98 328 490 65 136 149 313 188 395 l71 147 -124 0 -125 0 -43 -92 c-23
-51 -74 -166 -112 -255 -39 -90 -72 -163 -76 -163 -3 0 -29 100 -59 223 -29
122 -57 237 -62 255 l-9 32 -139 0 -139 0 20 -57z m239 17 c0 -27 -46 -45 -81
-33 -28 11 -75 10 -100 -1 -13 -5 -19 0 -27 23 l-11 31 110 0 c103 0 109 -1
109 -20z m590 13 c-1 -26 -23 -34 -99 -38 -45 -3 -86 -7 -92 -10 -5 -4 -9 8
-9 24 l0 31 100 0 c55 0 100 -3 100 -7z"/>
<path d="M11260 5388 c0 -2 -11 -84 -25 -183 -14 -99 -34 -252 -45 -340 -11
-88 -22 -177 -25 -197 l-5 -38 134 0 135 0 6 43 c28 202 77 586 82 645 l6 72
-132 0 c-72 0 -131 -1 -131 -2z"/>
</g>
</svg>
